<svg width="50" height="21" viewBox="0 0 50 21" fill="none" xmlns="http://www.w3.org/2000/svg">
<path d="M0.699219 20.5145C0.699219 20.2595 0.954131 19.8832 1.4761 19.3734C2.67378 18.1919 4.40558 16.4884 6.67147 14.263C8.91714 12.0173 10.2767 10.7185 10.6287 10.3301C6.58246 5.96012 3.53159 2.69884 1.4761 0.546243V0.400578C1.4761 0.303468 1.56107 0.218497 1.73101 0.133526C2.64141 0.133526 4.00095 0.133526 5.79749 0.133526H9.85182H10.8715H11.7333H13.2385H14.7316C15.0736 0.268751 15.3718 0.495536 15.5934 0.789017C16.0063 1.25132 16.3914 1.73772 16.7466 2.24566L18.9073 5.46243L21.2015 2.42775L22.0148 1.33526C22.5611 0.582659 22.9252 0.206358 23.1316 0.206358H23.2287H23.3379L27.101 0.121387L31.7379 0.0849711L35.5252 0C35.9137 0 36.12 0.254913 36.12 0.594798V0.813295C31.0784 5.83873 27.8697 9.07572 26.494 10.5243L30.7668 14.6757L33.8258 17.6861C35.1611 18.9971 36.0108 19.8347 36.3749 20.211V20.478C36.3749 20.8058 35.938 20.9636 35.0518 20.9636H29.9657H25.0009H23.9692C23.3854 20.9917 22.8022 20.8966 22.2576 20.6844L18.3489 15.4526C18.2275 15.6104 18.0819 15.8289 17.8877 16.1324L17.305 17.0185L16.6616 17.9653C16.4189 18.3052 16.164 18.6329 15.9212 18.9243C15.6784 19.2156 15.4114 19.5069 15.1443 19.7861C14.8969 20.0433 14.6245 20.2751 14.331 20.478C14.075 20.6555 13.7922 20.7907 13.4934 20.8786C10.301 20.8786 7.95818 20.8179 6.47725 20.8179H3.84315H1.22118C0.869161 20.8058 0.699219 20.6358 0.699219 20.5145Z" fill="#DD5D18"/>
<path d="M35.6094 20.8544C35.6094 18.2324 35.7672 16.3145 35.9007 15.1006C35.9007 11.3133 35.9857 7.46941 36.1556 3.56883C36.1556 2.81623 36.0706 2.25785 36.0706 1.89369V1.49311C36.0242 1.16718 35.9959 0.838934 35.9857 0.509875C35.9857 0.339933 36.1192 0.194268 36.3741 0.0486031C38.7169 0.157852 42.2735 0.218545 47.0683 0.218545C48.2094 0.218545 48.9984 0.218545 49.4232 0.218545V20.8544H35.6094Z" fill="#DD5D18"/>
</svg>
