<svg width="31" height="31" viewBox="0 0 31 31" fill="none" xmlns="http://www.w3.org/2000/svg">
<g clip-path="url(#clip0_30_148)">
<path fill-rule="evenodd" clip-rule="evenodd" d="M20.0442 8.67361H27.9007V6.42378H20.0442V8.67361ZM23.9168 13.1921C22.1643 13.1921 20.8332 14.2779 20.7051 16.2841H26.9927C26.5665 13.9031 25.5088 13.1921 23.9168 13.1921ZM24.1624 22.4975C25.7806 22.4975 26.968 21.4753 27.2104 20.6141H30.6137C29.6409 23.7288 27.632 25.4779 24.0249 25.4779C19.4219 25.4779 16.8386 22.2041 16.8386 17.8599C16.8386 7.62936 31.6004 7.26258 30.8592 18.8152H20.7051C20.8039 21.1611 21.7721 22.4975 24.1624 22.4975ZM8.84779 22.0474C10.7054 22.0474 12.0055 21.3329 12.0055 19.4048C12.0055 17.4049 10.8567 16.5374 8.92809 16.5374H4.27412V22.0474H8.84779ZM8.60228 13.5299C10.1479 13.5299 11.2149 12.8104 11.2149 11.1391C11.2149 9.37843 9.97346 8.83495 8.27647 8.83495H4.27412V13.5299H8.60228ZM9.14735 5.40442C12.8085 5.40442 15.3532 6.61454 15.3532 10.3798C15.3532 12.2441 14.6043 13.6335 12.7127 14.5696C15.1339 15.2889 16.2796 17.1774 16.2796 19.6589C16.2796 23.598 13.1559 25.4779 9.41912 25.4779H0V5.40442H9.14735Z" fill="#DD5D18"/>
</g>
<defs>
<clipPath id="clip0_30_148">
<rect width="30.8824" height="30.8824" fill="white"/>
</clipPath>
</defs>
</svg>
