<svg width="35" height="21" viewBox="0 0 35 21" fill="none" xmlns="http://www.w3.org/2000/svg">
<path d="M0.0566406 20.067C0.0566406 19.8239 0.29978 19.465 0.797639 18.9787C1.94001 17.8517 3.59182 16.2269 5.75307 14.1043C7.89502 11.9623 9.19177 10.7235 9.52754 10.353C5.66817 6.18486 2.7582 3.0742 0.797639 1.02102V0.882078C0.797639 0.789453 0.878685 0.708406 1.04078 0.627359C1.90914 0.627359 3.20589 0.627359 4.91945 0.627359H8.78654H9.7591H10.5811H12.0168H13.4409C13.7672 0.756339 14.0516 0.97265 14.263 1.25258C14.6568 1.69352 15.0241 2.15747 15.3629 2.64195L17.4238 5.71015L19.6121 2.81562L20.3878 1.77359C20.9088 1.05575 21.2562 0.696828 21.453 0.696828H21.5456H21.6498L25.239 0.615781L29.6619 0.581047L33.2743 0.5C33.6448 0.5 33.8416 0.74314 33.8416 1.06733V1.27573C29.0328 6.06907 25.9723 9.15657 24.6601 10.5382L28.7356 14.4979L31.6533 17.3693C32.9269 18.6198 33.7374 19.4186 34.0847 19.7776V20.0323C34.0847 20.3449 33.6679 20.4954 32.8227 20.4954H27.9715H23.236H22.2519C21.6951 20.5222 21.1388 20.4315 20.6194 20.2291L16.8912 15.2389C16.7754 15.3895 16.6365 15.5979 16.4513 15.8873L15.8955 16.7325L15.2819 17.6356C15.0503 17.9598 14.8072 18.2724 14.5756 18.5503C14.344 18.8282 14.0893 19.106 13.8346 19.3723C13.5987 19.6176 13.3388 19.8387 13.0589 20.0323C12.8147 20.2015 12.545 20.3305 12.26 20.4144C9.21493 20.4144 6.98035 20.3565 5.56782 20.3565H3.05537H0.5545C0.218735 20.3449 0.0566406 20.1828 0.0566406 20.067Z" fill="#DD5D18"/>
</svg>
