<svg width="35" height="21" viewBox="0 0 35 21" fill="none" xmlns="http://www.w3.org/2000/svg">
<path d="M3.02608 19.3565H1.80943C2.93022 18.2516 4.46849 16.7388 6.42448 14.8177L6.42451 14.8178L6.43088 14.8114C7.4142 13.8281 8.23281 13.0222 8.86215 12.4027C9.57834 11.6977 10.0494 11.2339 10.2392 11.0245L10.8544 10.3457L10.232 9.67357C7.10998 6.30178 4.60671 3.61925 2.72338 1.62736H2.72554H2.73324H2.74095H2.74867H2.7564H2.76414H2.77189H2.77965H2.78742H2.7952H2.80299H2.81079H2.8186H2.82642H2.83425H2.84208H2.84993H2.85779H2.86565H2.87353H2.88141H2.88931H2.89721H2.90513H2.91305H2.92099H2.92893H2.93688H2.94485H2.95282H2.9608H2.96879H2.97679H2.98481H2.99283H3.00086H3.0089H3.01695H3.02501H3.03307H3.04115H3.04924H3.05734H3.06545H3.07356H3.08169H3.08983H3.09797H3.10613H3.1143H3.12247H3.13066H3.13885H3.14705H3.15527H3.16349H3.17172H3.17997H3.18822H3.19648H3.20475H3.21303H3.22132H3.22962H3.23793H3.24625H3.25458H3.26292H3.27127H3.27963H3.288H3.29637H3.30476H3.31316H3.32156H3.32998H3.3384H3.34684H3.35528H3.36374H3.3722H3.38068H3.38916H3.39765H3.40616H3.41467H3.42319H3.43172H3.44026H3.44881H3.45737H3.46594H3.47452H3.48311H3.49171H3.50032H3.50894H3.51756H3.5262H3.53485H3.5435H3.55217H3.56085H3.56953H3.57823H3.58693H3.59565H3.60437H3.6131H3.62185H3.6306H3.63936H3.64813H3.65691H3.6657H3.6745H3.68332H3.69214H3.70096H3.7098H3.71865H3.72751H3.73638H3.74526H3.75414H3.76304H3.77195H3.78086H3.78979H3.79872H3.80767H3.81662H3.82559H3.83456H3.84354H3.85253H3.86154H3.87055H3.87957H3.8886H3.89764H3.90669H3.91575H3.92482H3.9339H3.94299H3.95209H3.96119H3.97031H3.97944H3.98858H3.99772H4.00688H4.01604H4.02522H4.0344H4.0436H4.0528H4.06201H4.07124H4.08047H4.08971H4.09896H4.10822H4.11749H4.12677H4.13606H4.14536H4.15467H4.16399H4.17332H4.18266H4.192H4.20136H4.21073H4.2201H4.22949H4.23889H4.24829H4.2577H4.26713H4.27656H4.28601H4.29546H4.30492H4.31439H4.32387H4.33336H4.34286H4.35238H4.36189H4.37142H4.38096H4.39051H4.40007H4.40964H4.41921H4.4288H4.4384H4.448H4.45762H4.46724H4.47688H4.48652H4.49617H4.50584H4.51551H4.52519H4.53488H4.54459H4.5543H4.56402H4.57375H4.58349H4.59324H4.603H4.61276H4.62254H4.63233H4.64213H4.65193H4.66175H4.67157H4.68141H4.69125H4.70111H4.71097H4.72085H4.73073H4.74062H4.75052H4.76043H4.77036H4.78029H4.79023H4.80018H4.81014H4.8201H4.83008H4.84007H4.85007H4.86007H4.87009H4.88012H4.89015H8.75724H9.72981H10.5519H11.9875H13.1844C13.2813 1.68666 13.3667 1.76384 13.4357 1.85526L13.4605 1.88805L13.4878 1.9187C13.8532 2.32782 14.1942 2.75816 14.5088 3.20747L16.5644 6.26774L17.3464 7.43199L18.1922 6.31321L20.3805 3.41868L20.3805 3.4187L20.3849 3.41277L21.1606 2.37074L21.1607 2.37078L21.1678 2.36099C21.4015 2.03906 21.5757 1.82498 21.6985 1.69532L25.225 1.61569L29.6404 1.58102L29.6477 1.58096L29.655 1.5808L32.1463 1.5249C27.8892 5.77302 25.1389 8.5511 23.9057 9.84958L23.2249 10.5665L23.934 11.2554L28.0049 15.2107L28.0095 15.2152L30.9226 18.0821L30.9234 18.0829C31.4987 18.6477 31.9767 19.1176 32.3591 19.4954H27.9422H23.2067H22.2226H22.1985L22.1745 19.4966C21.8471 19.5123 21.52 19.4738 21.2062 19.3831L17.663 14.6404L16.8736 13.5837L16.0693 14.6292C15.9251 14.8167 15.7665 15.0565 15.583 15.343L15.0348 16.1767L14.4321 17.0637C14.2177 17.3634 13.9923 17.653 13.7781 17.9101L14.5463 18.5503L13.7781 17.9101C13.5666 18.1639 13.329 18.4236 13.0835 18.6803C12.894 18.877 12.6854 19.0544 12.4608 19.2098L12.4599 19.2104C12.3388 19.2943 12.208 19.3628 12.0704 19.4143C10.6216 19.4133 9.36008 19.3994 8.28538 19.3855C8.07564 19.3828 7.8726 19.3801 7.6764 19.3774C6.83436 19.3661 6.11825 19.3565 5.53853 19.3565H3.02608ZM33.3981 19.4418C33.3978 19.4419 33.3976 19.442 33.3973 19.4421L33.3995 19.4413C33.3995 19.4413 33.399 19.4415 33.3981 19.4418Z" stroke="#DD5D18" stroke-width="2"/>
</svg>
