<svg width="29" height="29" viewBox="0 0 29 29" fill="none" xmlns="http://www.w3.org/2000/svg">
<path fill-rule="evenodd" clip-rule="evenodd" d="M14.2083 28.4167C22.0553 28.4167 28.4167 22.0553 28.4167 14.2083C28.4167 6.36129 22.0553 0 14.2083 0C6.36129 0 0 6.36129 0 14.2083C0 22.0553 6.36129 28.4167 14.2083 28.4167ZM5.35249 21.726C3.63086 19.6999 2.59216 17.0754 2.59216 14.2083V14.2055C7.25022 14.159 11.0769 13.5416 14.5212 12.3715C14.8113 12.9948 15.0927 13.6315 15.3651 14.2812C14.9259 14.4268 14.4938 14.5892 14.0686 14.7683C10.6456 16.209 7.75695 18.6791 5.35249 21.726ZM7.24126 23.5041C9.18225 24.9612 11.5945 25.8245 14.2083 25.8245C15.7826 25.8245 17.2837 25.5113 18.6528 24.9439C18.0404 22.0059 17.2463 19.2549 16.3092 16.6905C15.8879 16.8258 15.4751 16.9791 15.0708 17.1492C12.0848 18.4061 9.47881 20.6213 7.24126 23.5041ZM18.8485 16.1155C19.6952 18.4733 20.425 20.9765 21.0115 23.6248C23.312 21.96 24.9782 19.4728 25.5791 16.5944C23.1393 15.9636 20.9019 15.8363 18.8485 16.1155ZM17.8993 13.648C20.3489 13.2282 22.9911 13.3128 25.8226 13.9929C25.7788 11.5916 25.0065 9.36834 23.7175 7.53481C21.4879 9.11025 19.2815 10.413 16.9352 11.4364C17.2679 12.1573 17.5895 12.8946 17.8993 13.648ZM13.3632 10.0343C10.3299 11.0235 6.96269 11.5535 2.88197 11.6183C3.69061 8.0673 6.1263 5.13521 9.36337 3.64768C10.7847 5.57047 12.133 7.69916 13.3632 10.0343ZM15.7973 9.1143C17.9381 8.19113 19.9519 7.0149 21.9948 5.58806C19.9347 3.72606 17.204 2.59216 14.2083 2.59216C13.4351 2.59216 12.6796 2.66769 11.9487 2.8118C13.3175 4.73185 14.6125 6.83281 15.7973 9.1143Z" fill="#DD5D18"/>
</svg>
