<svg width="33" height="34" viewBox="0 0 33 34" fill="none" xmlns="http://www.w3.org/2000/svg">
<circle cx="16.5" cy="16.5" r="16.5" fill="#E51D0B"/>
<path d="M16.088 18.292L15.674 9.4H18.068L17.636 18.292H16.088ZM16.88 22.162C16.496 22.162 16.166 22.03 15.89 21.766C15.626 21.502 15.494 21.178 15.494 20.794C15.494 20.422 15.626 20.104 15.89 19.84C16.166 19.576 16.496 19.444 16.88 19.444C17.252 19.444 17.57 19.576 17.834 19.84C18.098 20.104 18.23 20.422 18.23 20.794C18.23 21.178 18.098 21.502 17.834 21.766C17.57 22.03 17.252 22.162 16.88 22.162Z" fill="white"/>
</svg>
