<svg width="247" height="21" viewBox="0 0 247 21" fill="none" xmlns="http://www.w3.org/2000/svg">
<path d="M0.0849711 0.643311C0.0849711 0.546201 0.169942 0.46123 0.352023 0.388398C0.601451 0.292507 0.862842 0.231244 1.1289 0.206317L2.16069 0.109207H3.37457H8.76416C9.23757 0.109207 9.89306 0.109207 10.7428 0.109207H12.6121C19.4179 0.109207 24.2734 0.84967 27.1786 2.33059L27.9555 2.75545C28.2364 2.9312 28.5079 3.12164 28.7688 3.32597C29.1562 3.64442 29.5212 3.98916 29.8613 4.35776C30.3138 4.82325 30.7204 5.33139 31.0751 5.8751C31.4603 6.49776 31.7546 7.17219 31.9491 7.87799C32.1894 8.66489 32.3122 9.48297 32.3133 10.3057C32.3145 11.5689 32.0237 12.8152 31.4636 13.9474C30.8958 15.0894 30.0982 16.1019 29.1208 16.9213C28.0443 17.7979 26.8514 18.521 25.5763 19.0699C24.1899 19.691 22.7355 20.1473 21.2428 20.4294C19.6432 20.741 18.0169 20.8955 16.3873 20.8907H15.6954H12.9642H10.2208C6.63988 20.8907 3.41098 20.8907 0.509827 21C0.205457 20.6659 0.0254188 20.2373 0 19.7861L0.0849711 0.643311ZM12.6607 16.1809C13.4333 16.1875 14.205 16.1265 14.9671 15.9988C15.5627 15.9057 16.1454 15.7428 16.7029 15.5133C17.145 15.3286 17.5547 15.0745 17.9168 14.7607C18.2481 14.4917 18.5348 14.1722 18.7665 13.8138C18.9788 13.4656 19.1422 13.0898 19.252 12.6971C19.368 12.2996 19.4532 11.8938 19.5069 11.4832C19.5069 11.1069 19.5676 10.6942 19.5676 10.2693V9.41961C19.6171 8.7316 19.5008 8.04175 19.2283 7.40806C18.9558 6.77437 18.5352 6.21535 18.0017 5.77799C16.9578 4.98898 15.1491 4.56412 12.5514 4.56412C12.4464 4.6659 12.3371 4.7631 12.2237 4.85545C12.1022 4.98602 11.9887 5.12384 11.8838 5.26817V5.94794C11.8838 6.0936 11.8838 6.43349 11.8838 7.004C11.6896 13.0491 11.9445 16.1081 12.6607 16.1809Z" fill="#1E1E1E"/>
<path d="M33.1875 20.0167V19.5069C33.1875 17.9653 33.1875 15.6832 33.2725 12.6728C33.3574 9.66237 33.3696 7.38029 33.3696 5.83867V0.242714H58.254V5.09821C58.2587 5.16286 58.2587 5.22777 58.254 5.29243C58.2455 5.36416 58.216 5.43176 58.169 5.48665L58.0233 5.64445C57.9672 5.71426 57.8909 5.76511 57.8048 5.79011L57.4528 5.86295C57.2994 5.87643 57.145 5.87643 56.9915 5.86295H56.3846C52.6944 5.86295 49.332 5.82653 46.2973 5.7537C46.2973 5.89936 46.2245 6.11786 46.1517 6.42133C46.0788 6.7248 46.0424 6.99185 46.006 7.22248C45.9884 7.44468 45.9884 7.66792 46.006 7.89011H56.1783C56.4699 7.87008 56.7627 7.9072 57.0401 7.99936C57.1047 8.03198 57.1585 8.08254 57.1951 8.14497C57.2317 8.20741 57.2496 8.27908 57.2465 8.35139C57.2513 8.42414 57.2513 8.49713 57.2465 8.56988C57.2369 8.6424 57.2369 8.71586 57.2465 8.78838C57.2465 9.21323 57.2465 9.85659 57.3072 10.7063C57.3678 11.556 57.3072 12.1872 57.3072 12.6242C57.2951 12.7036 57.2533 12.7754 57.1901 12.8251C57.127 12.8747 57.0473 12.8984 56.9673 12.8913C56.9 12.9119 56.8282 12.9119 56.7609 12.8913C52.2453 13.0369 48.9072 13.1098 46.7465 13.1098H46.2124V15.052C47.4262 15.052 49.3199 15.052 51.7233 14.9427C54.1268 14.8335 55.9233 14.8335 57.1251 14.8335C58.0598 14.8335 58.606 14.967 58.7517 15.2219V16.2416C58.7517 16.6786 58.7517 17.3219 58.7517 18.1716C58.7517 19.0092 58.7517 19.6525 58.7517 20.0895C58.7517 20.5265 58.4603 20.7693 57.8898 20.7693H54.4667H50.9829C48.9355 20.7693 45.9979 20.8057 42.1702 20.8786L33.8794 20.9878L33.2725 20.5629C33.2331 20.3828 33.2047 20.2003 33.1875 20.0167Z" fill="#1E1E1E"/>
<path d="M59.6992 20.5145C59.6992 20.2595 59.9541 19.8832 60.4761 19.3734C61.6738 18.1919 63.4056 16.4884 65.6715 14.263C67.9171 12.0173 69.2767 10.7185 69.6287 10.3301C65.5825 5.96012 62.5316 2.69884 60.4761 0.546243V0.400578C60.4761 0.303468 60.5611 0.218497 60.731 0.133526C61.6414 0.133526 63.001 0.133526 64.7975 0.133526H68.8518H69.8715H70.7333H72.2385H73.7316C74.0736 0.268751 74.3718 0.495536 74.5934 0.789017C75.0063 1.25132 75.3914 1.73772 75.7466 2.24566L77.9073 5.46243L80.2015 2.42775L81.0148 1.33526C81.5611 0.582659 81.9252 0.206358 82.1316 0.206358H82.2287H82.3379L86.101 0.121387L90.7379 0.0849711L94.5252 0C94.9137 0 95.12 0.254913 95.12 0.594798V0.813295C90.0784 5.83873 86.8697 9.07572 85.494 10.5243L89.7668 14.6757L92.8258 17.6861C94.1611 18.9971 95.0108 19.8347 95.3749 20.211V20.478C95.3749 20.8058 94.938 20.9636 94.0518 20.9636H88.9657H84.0009H82.9692C82.3854 20.9917 81.8022 20.8966 81.2576 20.6844L77.3489 15.4526C77.2275 15.6104 77.0819 15.8289 76.8877 16.1324L76.305 17.0185L75.6616 17.9653C75.4189 18.3052 75.164 18.6329 74.9212 18.9243C74.6784 19.2156 74.4114 19.5069 74.1443 19.7861C73.8969 20.0433 73.6245 20.2751 73.331 20.478C73.075 20.6555 72.7922 20.7907 72.4934 20.8786C69.301 20.8786 66.9582 20.8179 65.4773 20.8179H62.8431H60.2212C59.8692 20.8058 59.6992 20.6358 59.6992 20.5145Z" fill="#DD5D18"/>
<path d="M94.6094 20.8544C94.6094 18.2324 94.7672 16.3145 94.9007 15.1006C94.9007 11.3133 94.9857 7.46941 95.1556 3.56883C95.1556 2.81623 95.0706 2.25785 95.0706 1.89369V1.49311C95.0242 1.16718 94.9959 0.838934 94.9857 0.509875C94.9857 0.339933 95.1192 0.194268 95.3741 0.0486031C97.7169 0.157852 101.274 0.218545 106.068 0.218545C107.209 0.218545 107.998 0.218545 108.423 0.218545V20.8544H94.6094Z" fill="#DD5D18"/>
<path d="M110.73 20.563V14.4937C110.73 12.2601 110.844 7.99539 111.07 1.69944V0.546261C111.07 0.339902 111.07 0.230654 111.24 0.194237H125.965C126.098 0.194237 126.389 0.534122 126.826 1.21389C127.263 1.89366 127.785 2.77979 128.404 3.86013C129.024 4.94048 129.473 5.68094 129.728 6.09366L132.714 11.0341V5.79019C132.714 5.34106 132.714 4.57632 132.714 3.36245C132.714 2.14857 132.714 1.22603 132.714 0.546261C132.714 0.291347 133.855 0.16996 136.137 0.16996H139.074H141.356H142.983C143.214 0.16996 143.323 0.16996 143.323 0.254931C143.408 2.76765 143.456 6.3243 143.456 11.022V20.4174C143.359 20.648 142.898 20.7694 142.085 20.7694H141.526C140.786 20.7694 139.693 20.7694 138.261 20.7694H134.984H128.756C128.562 20.7694 128.15 20.1624 127.543 19.07C126.936 17.9775 125.88 16.1688 124.544 13.9353L122.323 10.233C122.323 10.7549 122.323 11.5561 122.323 12.6607C122.323 13.7653 122.323 14.5058 122.323 15.0885C122.323 15.6711 122.323 16.0838 122.323 16.8729C122.323 17.6619 122.323 18.2567 122.323 18.6572V20.3567C122.323 20.7815 122.032 20.9879 121.461 20.9879H111.629L110.73 20.563Z" fill="#1E1E1E"/>
<path d="M146.066 20.0167V19.5069C146.066 17.9653 146.066 15.6832 146.151 12.6728C146.236 9.66237 146.236 7.38029 146.236 5.83867V0.242714H171.133V5.09821C171.133 5.09821 171.133 5.20745 171.133 5.29243C171.133 5.36391 171.107 5.43303 171.06 5.48665L170.914 5.64445C170.851 5.71215 170.772 5.76234 170.684 5.79011L170.344 5.86295C170.186 5.8759 170.028 5.8759 169.87 5.86295H169.276C165.569 5.86295 162.203 5.82653 159.176 5.7537C159.176 5.89936 159.103 6.11786 159.043 6.42133C158.982 6.7248 158.921 6.99185 158.885 7.22248C158.867 7.44468 158.867 7.66792 158.885 7.89011H169.069C169.357 7.86945 169.646 7.9066 169.919 7.99936C169.986 8.03022 170.042 8.08002 170.081 8.14259C170.12 8.20517 170.14 8.27777 170.137 8.35139C170.137 8.35139 170.137 8.47277 170.137 8.56988C170.137 8.66699 170.137 8.73982 170.137 8.78838C170.137 9.21323 170.137 9.85659 170.137 10.7063C170.137 11.556 170.21 12.1872 170.21 12.6242C170.198 12.7036 170.156 12.7754 170.093 12.8251C170.03 12.8747 169.95 12.8984 169.87 12.8913C169.799 12.9122 169.723 12.9122 169.652 12.8913C165.153 13.0369 161.814 13.1098 159.638 13.1098H159.091V15.052C160.354 15.052 162.187 15.0155 164.59 14.9427C167.018 14.8699 168.802 14.8335 169.992 14.8335C170.939 14.8335 171.473 14.967 171.618 15.2219V16.2416C171.618 16.6786 171.618 17.3219 171.618 18.1716C171.618 19.0213 171.618 19.6525 171.618 20.0895C171.618 20.5265 171.339 20.7693 170.769 20.7693H167.346H163.837C161.79 20.7693 158.853 20.8057 155.025 20.8786L146.722 20.9878L146.127 20.5629C146.088 20.3834 146.068 20.2004 146.066 20.0167Z" fill="#1E1E1E"/>
<path d="M203.384 20.563C202.758 20.8235 202.083 20.9437 201.405 20.915C200.398 20.915 199.16 20.915 197.691 20.915L195.336 20.83H193.248H191.1C190.784 20.7693 190.529 20.4659 190.311 19.9439C190.041 19.2048 189.83 18.4459 189.679 17.6739L189.352 16.0959C189.371 15.7681 189.319 15.4401 189.199 15.1342C189.08 14.8284 188.896 14.5519 188.66 14.3237C187.99 13.9795 187.237 13.8321 186.487 13.8988H185.54V20.5023C185.54 20.6115 185.37 20.6965 185.091 20.7693C184.693 20.8608 184.286 20.9097 183.877 20.915H182.53C182.141 20.915 181.619 20.915 180.976 20.915H176.727C174.992 20.915 173.681 20.915 172.794 20.915L172.188 20.7208V0.546198C172.188 0.291285 172.758 0.157759 173.899 0.157759H192.605C195.149 0.0703351 197.68 0.57305 199.997 1.62654C200.749 1.96354 201.387 2.51063 201.835 3.20194C202.283 3.89325 202.522 4.69932 202.522 5.52308C202.522 7.70805 200.782 9.30227 197.303 10.3057C197.899 10.42 198.481 10.5991 199.038 10.8398C199.494 11.0275 199.926 11.2679 200.325 11.556C200.672 11.8182 200.975 12.1336 201.223 12.4907C201.454 12.8066 201.653 13.144 201.818 13.4982C201.978 13.8621 202.104 14.24 202.194 14.6271C202.292 14.9941 202.365 15.3672 202.413 15.7439C202.413 16.0595 202.51 16.4358 202.583 16.8728C202.656 17.3098 202.692 17.6618 202.741 17.9167V19.1306C202.833 19.3544 202.965 19.5599 203.129 19.7375C203.298 19.9105 203.441 20.1067 203.554 20.3202C203.554 20.478 203.493 20.563 203.384 20.563ZM185.419 5.89938C185.419 6.43348 185.419 6.8462 185.419 7.11325C185.459 7.46554 185.54 7.81187 185.661 8.14504C185.76 8.51269 185.988 8.832 186.305 9.04331C186.874 9.04715 187.442 9.00656 188.004 8.92192C188.54 8.83614 189.065 8.69372 189.57 8.49707C190.041 8.34689 190.461 8.06964 190.784 7.69591C191.076 7.33154 191.231 6.87608 191.221 6.4092C191.225 6.14793 191.144 5.8925 190.99 5.68088C190.816 5.45108 190.58 5.27453 190.311 5.17105C190.031 5.04702 189.743 4.94159 189.449 4.85545C189.094 4.7705 188.733 4.71768 188.368 4.69764L187.385 4.62481H185.929C185.832 4.64908 185.744 4.69749 185.672 4.76547C185.6 4.83344 185.546 4.91873 185.516 5.01325C185.432 5.30073 185.399 5.6006 185.419 5.89938Z" fill="#1E1E1E"/>
<path d="M204.015 0.643311C204.015 0.546201 204.1 0.46123 204.282 0.388398C204.531 0.292507 204.793 0.231244 205.059 0.206317L206.09 0.109207H207.304H212.682C213.155 0.109207 213.823 0.109207 214.66 0.109207H216.542C223.34 0.109207 228.195 0.84967 231.108 2.33059L231.885 2.75545C232.166 2.9312 232.438 3.12164 232.698 3.32597C233.086 3.64442 233.451 3.98916 233.791 4.35776C234.244 4.82325 234.65 5.33139 235.005 5.8751C235.394 6.49707 235.693 7.17153 235.891 7.87799C236.131 8.66489 236.254 9.48297 236.255 10.3057C236.252 11.5698 235.957 12.8161 235.393 13.9474C234.825 15.0894 234.028 16.1019 233.051 16.9213C231.974 17.7979 230.781 18.521 229.506 19.0699C228.12 19.691 226.665 20.1473 225.172 20.4294C223.573 20.741 221.947 20.8955 220.317 20.8907H219.625H216.894H214.151C210.57 20.8907 207.341 20.8907 204.44 21C204.135 20.6659 203.955 20.2373 203.93 19.7861L204.015 0.643311ZM216.59 16.1809C217.363 16.188 218.135 16.127 218.897 15.9988C219.492 15.9057 220.075 15.7428 220.633 15.5133C221.075 15.3286 221.484 15.0745 221.846 14.7607C222.178 14.4917 222.465 14.1722 222.696 13.8138C222.909 13.4656 223.072 13.0898 223.182 12.6971C223.298 12.2996 223.383 11.8938 223.437 11.4832C223.437 11.1069 223.437 10.6942 223.437 10.2693V9.41961C223.486 8.7316 223.37 8.04175 223.097 7.40806C222.825 6.77437 222.404 6.21535 221.871 5.77799C220.839 4.98898 219.018 4.56412 216.42 4.56412C216.335 4.66465 216.246 4.76184 216.153 4.85545L215.814 5.26817V5.94794C215.814 6.0936 215.814 6.43349 215.814 7.004C215.583 13.0491 215.838 16.1081 216.554 16.1809H216.59Z" fill="#1E1E1E"/>
<path d="M235.113 20.3202V19.9075C235.113 19.774 235.113 19.5676 235.113 19.2763C235.113 18.985 235.113 18.7422 235.113 18.5601V17.8561C235.113 15.6589 235.344 14.5543 235.793 14.5543H244.569C245.929 14.5543 246.621 14.6879 246.621 14.9306C246.621 16.6665 246.706 17.9896 246.706 18.9121V19.422C246.696 19.5188 246.696 19.6164 246.706 19.7133C246.706 19.8468 246.706 19.9439 246.706 20.0168C246.706 20.5266 246.548 20.7694 246.244 20.7694H235.72L235.113 20.3202Z" fill="#1E1E1E"/>
</svg>
