<svg width="29" height="29" viewBox="0 0 29 29" fill="none" xmlns="http://www.w3.org/2000/svg">
<path d="M7.07663 9.00733C8.14263 9.00733 9.00678 8.14318 9.00678 7.07718C9.00678 6.01119 8.14263 5.14703 7.07663 5.14703C6.01064 5.14703 5.14648 6.01119 5.14648 7.07718C5.14648 8.14318 6.01064 9.00733 7.07663 9.00733Z" fill="#DD5D18"/>
<path d="M5.14648 11.5809C5.14648 10.8702 5.72259 10.2941 6.43325 10.2941H7.72001C8.43067 10.2941 9.00678 10.8702 9.00678 11.5809V21.875C9.00678 22.5857 8.43067 23.1618 7.72001 23.1618H6.43325C5.72259 23.1618 5.14648 22.5857 5.14648 21.875V11.5809Z" fill="#DD5D18"/>
<path d="M12.8668 23.1618H14.1536C14.8643 23.1618 15.4404 22.5857 15.4404 21.875V16.0846C15.4404 14.1544 19.3007 12.8677 19.3007 15.4412V21.8755C19.3007 22.5862 19.8767 23.1618 20.5874 23.1618H21.8742C22.5849 23.1618 23.161 22.5857 23.161 21.875V14.1544C23.161 11.5809 21.2308 10.2941 18.6573 10.2941C16.0838 10.2941 15.4404 12.2243 15.4404 12.2243V11.5809C15.4404 10.8702 14.8643 10.2941 14.1536 10.2941H12.8668C12.1562 10.2941 11.5801 10.8702 11.5801 11.5809V21.875C11.5801 22.5857 12.1562 23.1618 12.8668 23.1618Z" fill="#DD5D18"/>
<path fill-rule="evenodd" clip-rule="evenodd" d="M24.4485 0C26.5806 0 28.3088 1.72832 28.3088 3.86029V24.4485C28.3088 26.5806 26.5806 28.3088 24.4485 28.3088H3.86029C1.72832 28.3088 0 26.5806 0 24.4485V3.86029C0 1.72832 1.72832 0 3.86029 0H24.4485ZM24.4485 2.57353C25.1592 2.57353 25.7353 3.14964 25.7353 3.86029V24.4485C25.7353 25.1592 25.1592 25.7353 24.4485 25.7353H3.86029C3.14964 25.7353 2.57353 25.1592 2.57353 24.4485V3.86029C2.57353 3.14964 3.14964 2.57353 3.86029 2.57353H24.4485Z" fill="#DD5D18"/>
</svg>
